<svg xmlns="http://www.w3.org/2000/svg" xmlns:xlink="http://www.w3.org/1999/xlink" width="1000" zoomAndPan="magnify" viewBox="0 0 750 187.499995" height="250" preserveAspectRatio="xMidYMid meet" version="1.0"><defs><g/><clipPath id="87be580645"><path d="M 0.996094 18.699219 L 124.417969 18.699219 L 124.417969 142.121094 L 0.996094 142.121094 Z M 0.996094 18.699219 " clip-rule="nonzero"/></clipPath><clipPath id="74189d32ff"><path d="M 62.707031 18.699219 C 28.625 18.699219 0.996094 46.328125 0.996094 80.410156 C 0.996094 114.492188 28.625 142.121094 62.707031 142.121094 C 96.789062 142.121094 124.417969 114.492188 124.417969 80.410156 C 124.417969 46.328125 96.789062 18.699219 62.707031 18.699219 Z M 62.707031 18.699219 " clip-rule="nonzero"/></clipPath><clipPath id="0669a356e8"><path d="M 0.996094 63.582031 L 124.417969 63.582031 L 124.417969 187 L 0.996094 187 Z M 0.996094 63.582031 " clip-rule="nonzero"/></clipPath><clipPath id="5eb9557257"><path d="M 62.707031 63.582031 C 28.625 63.582031 0.996094 91.210938 0.996094 125.289062 C 0.996094 159.371094 28.625 187 62.707031 187 C 96.789062 187 124.417969 159.371094 124.417969 125.289062 C 124.417969 91.210938 96.789062 63.582031 62.707031 63.582031 Z M 62.707031 63.582031 " clip-rule="nonzero"/></clipPath></defs><g clip-path="url(#87be580645)"><g clip-path="url(#74189d32ff)"><path fill="#a0cf67" d="M 0.996094 18.699219 L 124.417969 18.699219 L 124.417969 142.121094 L 0.996094 142.121094 Z M 0.996094 18.699219 " fill-opacity="1" fill-rule="nonzero"/></g></g><g clip-path="url(#0669a356e8)"><g clip-path="url(#5eb9557257)"><path fill="#13b5ea" d="M 0.996094 63.582031 L 124.417969 63.582031 L 124.417969 187 L 0.996094 187 Z M 0.996094 63.582031 " fill-opacity="1" fill-rule="nonzero"/></g></g><g fill="#0168b3" fill-opacity="1"><g transform="translate(143.354098, 130.486255)"><g><path d="M 22.609375 -30.3125 L 22.609375 -11.421875 L 55.5625 -11.421875 L 55.5625 0 L 8.96875 0 L 8.96875 -69.015625 L 54.8125 -69.015625 L 54.8125 -57.59375 L 22.609375 -57.59375 L 22.609375 -41.453125 L 50.75 -41.453125 L 50.75 -30.3125 Z M 22.609375 -30.3125 "/></g></g></g><g fill="#0168b3" fill-opacity="1"><g transform="translate(202.699841, 130.486255)"><g><path d="M 22.609375 0 L 8.96875 0 L 8.96875 -69.015625 L 22.609375 -69.015625 Z M 22.609375 0 "/></g></g></g><g fill="#0168b3" fill-opacity="1"><g transform="translate(234.332016, 130.486255)"><g><path d="M 33.515625 0.984375 C 27.753906 0.984375 22.773438 -0.328125 18.578125 -2.953125 C 14.378906 -5.578125 11.132812 -9.539062 8.84375 -14.84375 C 6.5625 -20.144531 5.421875 -26.703125 5.421875 -34.515625 C 5.421875 -42.378906 6.789062 -48.960938 9.53125 -54.265625 C 12.269531 -59.566406 16.070312 -63.515625 20.9375 -66.109375 C 25.800781 -68.710938 31.441406 -70.015625 37.859375 -70.015625 C 44.472656 -70.015625 50.109375 -68.785156 54.765625 -66.328125 C 59.421875 -63.878906 62.691406 -60.226562 64.578125 -55.375 L 54.625 -49.328125 L 53.4375 -49.375 C 52.019531 -52.46875 50.03125 -54.722656 47.46875 -56.140625 C 44.90625 -57.554688 41.703125 -58.265625 37.859375 -58.265625 C 31.910156 -58.265625 27.363281 -56.378906 24.21875 -52.609375 C 21.070312 -48.847656 19.5 -42.816406 19.5 -34.515625 C 19.5 -26.171875 20.96875 -20.109375 23.90625 -16.328125 C 26.851562 -12.554688 31.207031 -10.671875 36.96875 -10.671875 C 41.9375 -10.671875 45.597656 -11.785156 47.953125 -14.015625 C 50.316406 -16.253906 51.5 -19.59375 51.5 -24.03125 L 51.5 -27 L 35.171875 -27 L 35.171875 -38.09375 L 65.0625 -38.09375 L 65.0625 0 L 52.03125 0 L 52.03125 -9.25 L 51.03125 -9.390625 C 49.613281 -6.085938 47.460938 -3.53125 44.578125 -1.71875 C 41.703125 0.0820312 38.015625 0.984375 33.515625 0.984375 Z M 33.515625 0.984375 "/></g></g></g><g fill="#0168b3" fill-opacity="1"><g transform="translate(306.330629, 130.486255)"><g><path d="M 53.53125 -43.0625 L 53.53125 -69.015625 L 67.140625 -69.015625 L 67.140625 0 L 53.53125 0 L 53.53125 -31.4375 L 22.609375 -31.4375 L 22.609375 0 L 8.96875 0 L 8.96875 -69.015625 L 22.609375 -69.015625 L 22.609375 -43.0625 Z M 53.53125 -43.0625 "/></g></g></g><g fill="#0168b3" fill-opacity="1"><g transform="translate(382.483915, 130.486255)"><g><path d="M 55.328125 -69.015625 L 55.328125 -57.546875 L 35.40625 -57.546875 L 35.40625 0 L 21.8125 0 L 21.8125 -57.546875 L 1.890625 -57.546875 L 1.890625 -69.015625 Z M 55.328125 -69.015625 "/></g></g></g><g fill="#0168b3" fill-opacity="1"><g transform="translate(439.705103, 130.486255)"><g/></g></g><g fill="#0168b3" fill-opacity="1"><g transform="translate(462.508602, 130.486255)"><g><path d="M 8.96875 0 L 8.96875 -69.015625 L 38.421875 -69.015625 C 42.671875 -69.015625 46.265625 -68.347656 49.203125 -67.015625 C 52.148438 -65.679688 54.378906 -63.773438 55.890625 -61.296875 C 57.398438 -58.828125 58.15625 -55.910156 58.15625 -52.546875 C 58.15625 -49.492188 57.414062 -46.800781 55.9375 -44.46875 C 54.457031 -42.144531 52.335938 -40.273438 49.578125 -38.859375 L 49.578125 -37.859375 C 53.921875 -36.722656 57.269531 -34.660156 59.625 -31.671875 C 61.988281 -28.679688 63.171875 -25.015625 63.171875 -20.671875 C 63.171875 -14.066406 61.175781 -8.96875 57.1875 -5.375 C 53.207031 -1.789062 47.300781 0 39.46875 0 Z M 35.59375 -41.5 C 41.957031 -41.5 45.140625 -44.363281 45.140625 -50.09375 C 45.140625 -53.019531 44.347656 -55.195312 42.765625 -56.625 C 41.191406 -58.0625 38.800781 -58.78125 35.59375 -58.78125 L 22.609375 -58.78125 L 22.609375 -41.5 Z M 38.09375 -10.8125 C 45.613281 -10.8125 49.375 -14.226562 49.375 -21.0625 C 49.375 -27.914062 45.613281 -31.34375 38.09375 -31.34375 L 22.609375 -31.34375 L 22.609375 -10.8125 Z M 38.09375 -10.8125 "/></g></g></g><g fill="#0168b3" fill-opacity="1"><g transform="translate(530.022039, 130.486255)"><g><path d="M 66.234375 0 L 51.890625 0 L 46.6875 -15.90625 L 20.25 -15.90625 L 15.0625 0 L 1.03125 0 L 24.875 -69.015625 L 42.390625 -69.015625 Z M 32.8125 -54.625 L 23.9375 -27.375 L 42.921875 -27.375 L 33.984375 -54.625 Z M 32.8125 -54.625 "/></g></g></g><g fill="#0168b3" fill-opacity="1"><g transform="translate(597.299442, 130.486255)"><g><path d="M 22.1875 0 L 8.96875 0 L 8.96875 -69.015625 L 24.59375 -69.015625 L 52.3125 -24.546875 L 53.53125 -24.734375 L 53.53125 -69.015625 L 66.65625 -69.015625 L 66.65625 0 L 52.6875 0 L 23.375 -47.5 L 22.1875 -47.3125 Z M 22.1875 0 "/></g></g></g><g fill="#0168b3" fill-opacity="1"><g transform="translate(672.980606, 130.486255)"><g><path d="M 8.96875 0 L 8.96875 -69.015625 L 22.609375 -69.015625 L 22.609375 -40.84375 L 24.125 -40.84375 L 47.15625 -69.015625 L 61.140625 -69.015625 L 61.140625 -67.84375 L 35.734375 -36.453125 L 63.78125 -1.1875 L 63.78125 0 L 48.34375 0 L 24.125 -29.796875 L 22.609375 -29.796875 L 22.609375 0 Z M 8.96875 0 "/></g></g></g></svg>